<svg width="22" height="22" viewBox="0 0 22 22" fill="none" xmlns="http://www.w3.org/2000/svg">
<g clip-path="url(#clip0_102_851)">
<path d="M10.9999 14.6666C13.025 14.6666 14.6666 13.025 14.6666 11C14.6666 8.97494 13.025 7.33331 10.9999 7.33331C8.97487 7.33331 7.33325 8.97494 7.33325 11C7.33325 13.025 8.97487 14.6666 10.9999 14.6666Z" stroke="#2A97D4" stroke-width="2" stroke-linecap="round" stroke-linejoin="round"/>
<path d="M14.6666 7.33335V11.9167C14.6666 12.646 14.9563 13.3455 15.4721 13.8612C15.9878 14.377 16.6872 14.6667 17.4166 14.6667C18.1459 14.6667 18.8454 14.377 19.3611 13.8612C19.8769 13.3455 20.1666 12.646 20.1666 11.9167V11C20.1665 8.93113 19.4665 6.92313 18.1804 5.30251C16.8944 3.68189 15.0979 2.54398 13.0832 2.07379C11.0684 1.60361 8.95387 1.82881 7.08333 2.71277C5.21279 3.59674 3.69629 5.08748 2.78041 6.9426C1.86454 8.79772 1.60315 10.9081 2.03875 12.9306C2.47435 14.9531 3.58132 16.7688 5.17967 18.0824C6.77802 19.396 8.77374 20.1303 10.8423 20.1659C12.9109 20.2015 14.9307 19.5362 16.5733 18.2784" stroke="#2A97D4" stroke-width="2" stroke-linecap="round" stroke-linejoin="round"/>
</g>
<defs>
<clipPath id="clip0_102_851">
<rect width="22" height="22" fill="white"/>
</clipPath>
</defs>
</svg>
