<svg width="24" height="24" viewBox="0 0 24 24" fill="none" xmlns="http://www.w3.org/2000/svg">
<path d="M5.66667 0.666626C8.70423 0.666626 11.1836 3.05664 11.3268 6.05873L11.3333 6.33329V20.6666C11.3333 22.5076 9.84093 24 8 24C6.23269 24 4.78661 22.6246 4.67376 20.8858L4.66667 20.6666V7.99996C4.66667 7.44768 5.11439 6.99996 5.66667 6.99996C6.17293 6.99996 6.59132 7.37616 6.65753 7.86427L6.66667 7.99996V20.6666C6.66667 21.403 7.26363 22 8 22C8.68379 22 9.24735 21.4853 9.32436 20.8221L9.33333 20.6666V6.33329C9.33333 4.30825 7.69171 2.66663 5.66667 2.66663C3.71663 2.66663 2.12213 4.18889 2.00669 6.10993L2 6.33329V18.6666C2 19.2189 1.55228 19.6666 1 19.6666C0.493733 19.6666 0.0753467 19.2904 0.00913334 18.8024L0 18.6666V6.33329C0 3.20368 2.53705 0.666626 5.66667 0.666626ZM17.6667 17.3333C18.2189 17.3333 18.6667 17.781 18.6667 18.3333C18.6667 18.8396 18.2904 19.258 17.8024 19.3242L17.6667 19.3333H14.3333C13.7811 19.3333 13.3333 18.8856 13.3333 18.3333C13.3333 17.827 13.7096 17.4086 14.1976 17.3424L14.3333 17.3333H17.6667ZM23 13.3333C23.5523 13.3333 24 13.781 24 14.3333C24 14.8396 23.6237 15.258 23.1357 15.3242L23 15.3333H14.3333C13.7811 15.3333 13.3333 14.8856 13.3333 14.3333C13.3333 13.827 13.7096 13.4086 14.1976 13.3424L14.3333 13.3333H23ZM23 9.33329C23.5523 9.33329 24 9.78103 24 10.3333C24 10.8396 23.6237 11.258 23.1357 11.3242L23 11.3333H14.3333C13.7811 11.3333 13.3333 10.8856 13.3333 10.3333C13.3333 9.82703 13.7096 9.40863 14.1976 9.34236L14.3333 9.33329H23ZM23 5.33329C23.5523 5.33329 24 5.78101 24 6.33329C24 6.83956 23.6237 7.25795 23.1357 7.32416L23 7.33329H14.3333C13.7811 7.33329 13.3333 6.88557 13.3333 6.33329C13.3333 5.82703 13.7096 5.40864 14.1976 5.34243L14.3333 5.33329H23Z" fill="#0093D1"/>
</svg>
