<svg width="28" height="28"  viewBox="0 0 28 28" fill="none" xmlns="http://www.w3.org/2000/svg">
<path d="M6.33034 19.3361C7.619 19.3361 8.66368 20.3808 8.66368 21.6694V25C8.66368 26.2886 7.619 27.3333 6.33034 27.3333H2.99984C1.71117 27.3333 0.666504 26.2886 0.666504 25V21.6694C0.666504 20.3808 1.71117 19.3361 2.99984 19.3361H6.33034ZM6.33034 21.3361H2.99984C2.81574 21.3361 2.6665 21.4854 2.6665 21.6694V25C2.6665 25.1841 2.81574 25.3333 2.99984 25.3333H6.33034C6.51444 25.3333 6.66368 25.1841 6.66368 25V21.6694C6.66368 21.4854 6.51444 21.3361 6.33034 21.3361ZM10.9973 22H26.337C26.8893 22 27.337 22.4477 27.337 23C27.337 23.5062 26.9608 23.9246 26.4728 23.9909L26.337 24H10.9973C10.445 24 9.99729 23.5522 9.99729 23C9.99729 22.4937 10.3735 22.0753 10.8616 22.009L10.9973 22ZM6.33034 10.0014C7.619 10.0014 8.66368 11.046 8.66368 12.3348V15.6652C8.66368 16.9538 7.619 17.9985 6.33034 17.9985H2.99984C1.71117 17.9985 0.666504 16.9538 0.666504 15.6652V12.3348C0.666504 11.046 1.71117 10.0014 2.99984 10.0014H6.33034ZM6.33034 12.0014H2.99984C2.81574 12.0014 2.6665 12.1506 2.6665 12.3348V15.6652C2.6665 15.8493 2.81574 15.9985 2.99984 15.9985H6.33034C6.51444 15.9985 6.66368 15.8493 6.66368 15.6652V12.3348C6.66368 12.1506 6.51444 12.0014 6.33034 12.0014ZM10.9973 12.6666H26.337C26.8893 12.6666 27.337 13.1144 27.337 13.6666C27.337 14.1729 26.9608 14.5913 26.4728 14.6576L26.337 14.6666H10.9973C10.445 14.6666 9.99729 14.2189 9.99729 13.6666C9.99729 13.1604 10.3735 12.742 10.8616 12.6757L10.9973 12.6666ZM6.33034 0.666626C7.619 0.666626 8.66368 1.71129 8.66368 2.99996V6.33047C8.66368 7.61912 7.619 8.6638 6.33034 8.6638H2.99984C1.71117 8.6638 0.666504 7.61912 0.666504 6.33047V2.99996C0.666504 1.71129 1.71117 0.666626 2.99984 0.666626H6.33034ZM6.33034 2.66663H2.99984C2.81574 2.66663 2.6665 2.81587 2.6665 2.99996V6.33047C2.6665 6.51456 2.81574 6.6638 2.99984 6.6638H6.33034C6.51444 6.6638 6.66368 6.51456 6.66368 6.33047V2.99996C6.66368 2.81587 6.51444 2.66663 6.33034 2.66663ZM10.9973 3.33329H26.337C26.8893 3.33329 27.337 3.78101 27.337 4.33329C27.337 4.83956 26.9608 5.25795 26.4728 5.32416L26.337 5.33329H10.9973C10.445 5.33329 9.99729 4.88557 9.99729 4.33329C9.99729 3.82703 10.3735 3.40864 10.8616 3.34243L10.9973 3.33329Z" fill="#0093D1"/>
</svg>
