<svg width="26" height="28" viewBox="0 0 26 28" fill="none" xmlns="http://www.w3.org/2000/svg">
<path d="M18.3319 0.666626L24.4036 0.667319L24.5373 0.685879L24.6691 0.722692L24.7495 0.756759C24.8551 0.803239 24.954 0.870826 25.0411 0.957773L25.0953 1.01649L25.1533 1.09167L25.2256 1.21183L25.2772 1.33225L25.3027 1.41769L25.3208 1.50303L25.3333 1.62863L25.3339 7.67181C25.3339 8.22409 24.8863 8.67181 24.3339 8.67181C23.8277 8.67181 23.4093 8.29561 23.3431 7.80751L23.3339 7.67181L23.3333 4.07863L14.7476 12.6662C14.3925 13.0213 13.8369 13.0536 13.4455 12.7632L13.3333 12.6664L9.29292 8.78561L1.70711 16.3714C1.31659 16.762 0.683414 16.762 0.292894 16.3714C-0.0621328 16.0164 -0.0943997 15.4609 0.196067 15.0694L0.292894 14.9572L8.5858 6.66431C8.94081 6.30928 9.4964 6.27701 9.88787 6.56747L10 6.66429L14.0404 10.545L21.9173 2.66663H18.3319C17.8256 2.66663 17.4072 2.29043 17.3411 1.80232L17.3319 1.66663C17.3319 1.16036 17.7081 0.741973 18.1963 0.675759L18.3319 0.666626ZM1 20.6666C1.55228 20.6666 2 21.1144 2 21.6666V26.3333C2 26.8856 1.55228 27.3333 1 27.3333C0.44772 27.3333 4.49531e-07 26.8856 4.49531e-07 26.3333V21.6666C4.49531e-07 21.1144 0.44772 20.6666 1 20.6666ZM8.66667 16.3333C8.66667 15.781 8.21895 15.3333 7.66667 15.3333C7.11439 15.3333 6.66667 15.781 6.66667 16.3333V26.3333C6.66667 26.8856 7.11439 27.3333 7.66667 27.3333C8.21895 27.3333 8.66667 26.8856 8.66667 26.3333V16.3333ZM14.3333 18C14.8856 18 15.3333 18.4477 15.3333 19V26.3333C15.3333 26.8856 14.8856 27.3333 14.3333 27.3333C13.7811 27.3333 13.3333 26.8856 13.3333 26.3333V19C13.3333 18.4477 13.7811 18 14.3333 18ZM22 12.3333C22 11.781 21.5523 11.3333 21 11.3333C20.4477 11.3333 20 11.781 20 12.3333V26.3333C20 26.8856 20.4477 27.3333 21 27.3333C21.5523 27.3333 22 26.8856 22 26.3333V12.3333Z" fill="#0093D1"/>
</svg>
